<svg width="138" height="138" xmlns="http://www.w3.org/2000/svg">

 <g>
  <title>background</title>
  <rect fill="none" id="canvas_background" height="140" width="140" y="-1" x="-1"/>
 </g>
 <g>
  <title>Layer 1</title>
  <path stroke="null" id="svg_1" fill="#81B3D3" d="m138,43.953437l-138,0l59.51,65.68c5.22,5.761 13.76,5.761 18.98,0l59.51,-65.68z"/>
  <path id="svg_2" fill="#23A9E1" d="m36.687,44.410437l32.148,37.879l32.02,-37.65l-64.168,-0.229z"/>
  <path id="svg_3" fill="white" d="m78.4201,58.672437l-17.32,0c-0.2806,-0.1272 -0.6617,-0.2698 -1.088,-0.4294c-2.1978,-0.8226 -5.6006,-2.0962 -2.665,-4.0376c1.4696,-0.93341 2.5247,-0.78364 3.5219,-0.64207c1.0894,0.15464 2.1097,0.29948 3.5261,-0.98793c2.5795,-2.34072 6.2748,1.2875 7.5402,2.5299c0.2608,0.256 0.4183,0.4107 0.4418,0.3911c1.2495,-1.0408 3.2536,0.7613 4.7337,2.0922c0.5194,0.467 0.9742,0.876 1.3093,1.0838zm9.41,-3.478l-9.86,0.054c3.896,-4.5 5.647,-4.018 9.86,-0.054z" clip-rule="evenodd" fill-rule="evenodd"/>
  <path id="svg_4" fill="#491213" d="m36,42.954437l33.055,0l32.945,-0.001l0,15.04l-32.944,39.205l-0.22,0.275l-32.836,-39.937l0,-14.582zm4.011,1.152l0,1.907l-1.604,-1.906l1.604,-0.001zm57.611,0.001l0,2.434l2.08,-2.434l-2.08,0zm-49.155,11.927l-0.09,-0.083l0.8193,0.9734l-0.0003,0.0006l19.638,23.33l-19.6377,-23.3306c2.655,-4.54246 6.4569,-5.22219 10.5467,-0.3074c0.654,0.8175 1.0508,1.5608 1.369,2.1568c0.4506,0.8441 0.7436,1.3929 1.386,1.4392c1.1387,0.0814 1.6987,-0.6742 2.2556,-1.4256c0.4422,-0.5968 0.8826,-1.191 1.6094,-1.3614c1.4212,-0.334 2.0758,0.0247 2.7187,0.377c0.2039,0.1118 0.4067,0.2229 0.6323,0.311c0.2822,0.1104 0.5459,0.1802 0.79,0.2448c0.627,0.166 1.1246,0.2977 1.473,0.9952c0.1161,0.232 0.2131,0.4642 0.3078,0.6909c0.4199,1.0055 0.7949,1.9034 2.5942,2.2021c2.5483,0.424 4.7027,-0.5283 6.9443,-1.5193c1.607,-0.7103 3.2588,-1.4405 5.1327,-1.6977l2.515,-2.945c-0.105,-0.11 -2.467,-2.54 -6.132,-4.95c-3.429,-2.255 -8.728,-4.949 -14.506,-4.977c-5.791,-0.032 -11.016,2.653 -14.383,4.912c-3.5431,2.3773 -5.8155,4.7864 -5.9743,4.9548l-0.0087,0.0092zm48.647,-11.928l-3.227,0l0,6.807l3.227,-3.777l0,-3.03zm-7.282,11.457l0,-11.456l3.546,0l0,7.404l-3.5,4.098c-0.0148,-0.0158 -0.0302,-0.0312 -0.046,-0.046zm-0.508,-0.495l0,-9.894l-3.557,6.908c1.2411,0.9274 2.4286,1.9243 3.557,2.986zm-4.165,-10.252l0,6.819c-0.463,-0.334 -0.95,-0.673 -1.465,-1.012c-0.664,-0.438 -1.4,-0.892 -2.194,-1.34l3.659,-4.467zm-4.312,4.107l0,-4.24l-3.12,2.766c1.0651,0.4363 2.1066,0.92831 3.12,1.474zm0.508,-4.816l3.727,0l-3.727,4.55l0,-4.55zm7.945,0l-3.633,0l-0.001,7.06l3.634,-7.06zm-12.43,0l3.86,0l-3.53,3.128c-0.0654,-0.0252 -0.1319,-0.04932 -0.1983,-0.07343c-0.0444,-0.01609 -0.0887,-0.03217 -0.1327,-0.04857l0,-3.006l0.001,0zm-0.509,2.82l0,-2.403l-3.1,1.516c1.0507,0.23106 2.0861,0.5273 3.1,0.887zm-4.203,-2.361l0,1.26c-0.7216,-0.12109 -1.4488,-0.2052 -2.179,-0.252l2.179,-1.008zm-4.518,1.003l-2.248,-1.042l0,1.295c0.736,-0.123 1.486,-0.21 2.248,-0.253zm-6.368,-1.045l3.065,1.498c-1.06,0.229 -2.083,0.528 -3.066,0.875l0.001,-2.373zm0.306,-0.417l3.304,1.617l0.001,-1.617l-3.305,0zm6.87,1.275l-2.754,-1.275l2.754,0l0,1.275zm3.49,-1.275l-2.881,0l0,1.334l2.881,-1.334zm0.878,0l3.24,0l-3.24,1.584l0,-1.584zm-15.921,0.001l3.51,3.11l0.359,-0.135l0,-2.975l-3.869,0zm-0.108,0.583l3.093,2.741c-1.0573,0.43973 -2.0898,0.9368 -3.093,1.489l0,-4.23zm-0.672,4.608l-3.64,-4.48l0,6.89c1.1633,-0.87645 2.3789,-1.68127 3.64,-2.41zm-7.805,-4.122l3.586,6.974c-1.2606,0.9737 -2.4583,2.0261 -3.586,3.151l0,-10.125zm0.022,-1.07l3.634,7.07l0,-7.07l-3.634,0zm7.946,4.585l-3.726,-4.585l3.726,0l0,4.585zm-15.758,-2.075l3.227,3.833l0,-6.343l-3.227,0l0,2.51zm3.735,-2.51l3.545,0l0,11.16l-3.546,-4.212l0.001,-6.948z" clip-rule="evenodd" fill-rule="evenodd"/>
  <path id="svg_5" fill="#23A9E1" d="m66.2271,89.979437l2.61,-4.22l2.598,4.22l-2.598,4.23l-2.61,-4.23z"/>
  <path id="svg_6" fill="#DC6243" d="m52.8799,55.671437c-1.783,0.554 -2.881,3.012 -0.257,3.121l0.001,0c-0.108,-1.668 0.366,-2.374 0.512,-0.348c0.4327,-0.02 0.882,-0.0319 1.3387,-0.0441c1.6419,-0.0435 3.3808,-0.0897 4.7953,-0.5239c-1.14,-1.091 -4.695,-2.733 -6.39,-2.205zm5.913,11.267c-5.596,-0.046 -1.813,-8.648 0.091,-8.128c2.19,0.696 1.944,8.194 -0.091,8.128zm2.54,-2.855c-0.11,1.972 0.878,1.669 1.423,0.045l0,-0.001c0.0033,0.3588 -0.0361,0.7204 -0.0746,1.0728c-0.1021,0.9363 -0.1972,1.8087 0.5336,2.3972c1.324,1.069 3.865,-0.397 4.696,-1.492c-1.597,-0.62 0.348,-4.387 1.546,-4.961c-1.232,2.581 -2.652,6.426 0.568,6.426c-1.632,0 1.302,-6.746 1.318,-6.692c-0.1861,-0.6169 -0.6486,-0.6835 -1.2009,-0.763c-0.4091,-0.0588 -0.8675,-0.1248 -1.2991,-0.427c-1.582,-1.1072 -2.4087,-0.1541 -3.2118,0.772c-0.3503,0.4038 -0.6961,0.8025 -1.0982,1.023c-0.4801,0.2628 -0.9503,0.3967 -1.3764,0.518c-0.986,0.2808 -1.7356,0.4942 -1.8236,2.082zm12.885,10.426c-3.433,-2.02 -2.564,-3.523 0.23,-4.925c0.3603,-0.1809 0.8316,-0.4778 1.358,-0.8094c1.6101,-1.0144 3.7358,-2.3535 4.775,-1.6896l-6.363,7.424zm-3.5438,2.4485l-0.0003,0c-1.7066,-0.1052 -3.4937,-0.2152 -5.0519,0.1235c1.207,0.302 4.151,1.165 1.41,1.894c0.983,1.407 2.578,1.317 3.624,0.082c-0.2559,-0.1259 -0.4411,-0.2691 -0.6248,-0.4112l0,0c-0.1214,-0.0939 -0.2421,-0.1873 -0.3822,-0.2748c1.085,-0.196 2.1,-0.822 2.235,-1.345c-0.3958,-0.0184 -0.8005,-0.0433 -1.2098,-0.0685zm-0.3012,-1.5055c0.869,-0.84 1.813,-0.796 2.746,0l-0.001,0c-0.474,1.382 -9.059,0.894 -10.124,-1.72c0.5244,0.0792 1.2071,0.0872 1.9492,0.0958c2.0585,0.0241 4.5735,0.0534 5.4298,1.6242zm-4.028,-2.151c-0.4506,-0.1397 -1.209,-0.2291 -1.978,-0.3197c-1.9013,-0.2242 -3.8679,-0.4561 -1.41,-1.4743c1.065,-0.441 6.593,0.063 3.388,1.794zm1.912,-3.03c-0.477,-1.077 0.365,-2.36 1.74,-1.428c1.199,0.813 -0.552,2.017 -1.74,1.428zm-2.836,0.091c-2.265,0.679 -5.273,-0.784 -1.63,-1.52c2.261,-0.456 4.666,0.506 1.63,1.52z" clip-rule="evenodd" fill-rule="evenodd"/>
  <path id="svg_7" fill="#F49774" d="m71.7741,69.785437c-2.908,-2.987 4.342,-2.712 5.51,-3.763c0.85,0.284 6.99,-5.377 8.485,-5.025c-1.074,1.26 -3.388,5.282 -5.047,5.282c-1.275,0 -2.565,-0.19 -3.552,0.718c-1.444,1.33 -3.837,2.006 -5.396,2.788z"/>
  <path id="svg_8" fill="#F4B1A4" d="m72.727,66.133437c-1.592,0.856 -3.098,-2.536 -0.349,-2.206c1.826,0.22 3.676,-0.154 5.42,0.147c-1.251,1.487 -3.056,2.306 -5.071,2.059z"/>
  <path id="svg_9" fill="white" d="m39.265,58.436437c0.361,1.219 1.584,1.666 2.731,1.326c0.0362,0.0403 0.0588,0.1026 0.0801,0.1609l0,0c0.0099,0.0271 0.0194,0.0533 0.0299,0.0761c-0.0997,0.0383 -0.2837,0.1176 -0.5038,0.2125l0,0l0,0l0,0l0,0c-0.6127,0.264 -1.5042,0.6481 -1.6292,0.6025c-0.217,-0.4327 -0.5583,-0.7524 -0.9017,-1.0741c-0.2392,-0.2241 -0.4794,-0.4491 -0.6793,-0.7139c-0.566,-0.748 -0.897,-1.651 -0.808,-2.597c0.142,-1.745 1.898,-3.669 3.762,-3.405c0.92,0.133 1.688,0.787 2.26,1.483c0.1624,0.1893 0.3037,0.3878 0.4431,0.5837c0.2965,0.4167 0.5846,0.8214 1.0499,1.1003c-0.558,0.712 -1.116,1.422 -1.676,2.133c-0.3305,-0.1461 -0.2301,-0.374 -0.1202,-0.6231c0.0307,-0.0698 0.0622,-0.1412 0.0852,-0.2129c0.163,-0.517 0.285,-1.105 0.061,-1.625c-0.51,-1.174 -1.905,-1.214 -2.84,-0.544c-0.946,0.678 -1.697,1.926 -1.344,3.117zm8.425,1.921c0.1167,-0.0252 0.2054,0.0167 0.2843,0.054c0.115,0.0543 0.2089,0.0987 0.3377,-0.09l-1.59,-1.894c-0.241,-0.287 -0.546,-0.595 -0.459,0.012c0.058,0.409 -3.969,3.677 -4.215,3.778c-0.1349,0.0557 -0.2455,0.0118 -0.3462,-0.0281c-0.1309,-0.0518 -0.245,-0.0971 -0.3738,0.0911c0.2008,0.2385 0.4013,0.4772 0.6018,0.7159l0.0004,0.0004l0.0015,0.0018l0.0005,0.0006l0.0008,0.001l0.0001,0.0001l0.0002,0.0001l0.0001,0.0002l0.0001,0.0001l0.0001,0.0001l0.0001,0.0002l0.0001,0.0001l0.0004,0.0005l0.0002,0.0002l0.0001,0.0001l0.0001,0.0001l0.0001,0.0002l0.0001,0.0001c0.272,0.3238 0.5441,0.6477 0.8172,0.9712c0.0515,0.0612 0.1019,0.1241 0.1524,0.1872c0.1063,0.1329 0.2132,0.2665 0.3326,0.3858c0.1888,0.1888 0.1529,-0.2684 0.1453,-0.3657l0,0l0,-0.0001c-0.0013,-0.016 -0.0018,-0.0223 -0.0003,-0.0142c-0.0534,-0.2962 0.2588,-0.5529 0.4783,-0.7334l0.0001,0c0.0272,-0.0224 0.053,-0.0436 0.0766,-0.0636c1.004,-0.884 3.505,-2.979 3.753,-3.012zm3.423,4.531c0.333,0.401 0.578,0.834 0.523,1.374c-0.013,0.1277 -0.0876,0.2852 -0.1632,0.4449c-0.1464,0.3091 -0.2967,0.6265 -0.0118,0.7531l1.455,-1.84c-0.39,-0.098 -3.482,-3.796 -3.532,-4.201l-2.051,1.126c0.0699,0.2831 0.4133,0.1939 0.7431,0.1082c0.17,-0.0442 0.3364,-0.0874 0.4599,-0.0782c0.538,0.038 0.926,0.363 1.268,0.747c-0.1056,0.0886 -0.2254,0.1894 -0.3561,0.2994l-0.0043,0.0036l-0.0006,0.0004l0,0.0001l-0.0001,0c-1.2577,1.058 -3.5164,2.9581 -3.7769,3.0015c-0.048,0.0076 -0.1406,-0.0319 -0.2436,-0.0758c-0.2107,-0.0899 -0.4651,-0.1983 -0.4704,0.0388c-0.003,0.1253 0.2988,0.4239 0.5002,0.6231l0,0l0.0001,0.0001c0.0718,0.071 0.1308,0.1294 0.1587,0.1628l1.447,1.722c0.2198,-0.1003 0.1769,-0.2335 0.1271,-0.388c-0.041,-0.1273 -0.0867,-0.2691 0.0059,-0.419c0.1191,-0.193 2.0547,-1.826 3.2179,-2.8074l0.0001,-0.0001l0,0l0.0006,-0.0005c0.3014,-0.2543 0.5509,-0.4647 0.7034,-0.595zm13.8485,15.5806l0,0l-0.0002,-0.0002c-0.1946,-0.2517 -0.3445,-0.4457 -0.4223,-0.5384l-0.213,-0.253c-0.007,-0.01 -0.185,0.145 -0.16,0.124c-0.0535,0.0448 -0.0364,0.1315 -0.0169,0.2303c0.0214,0.1084 0.0456,0.2314 -0.0171,0.3297c-0.515,0.806 -3.738,3.236 -3.905,3.352c-0.1738,0.1207 -0.356,0.1008 -0.5217,0.0828c-0.1776,-0.0193 -0.3362,-0.0366 -0.4453,0.1232c0.139,0.165 0.3553,0.4357 0.5947,0.7352l0,0c0.5643,0.7061 1.2564,1.5722 1.3653,1.5898c0.2169,0.0349 0.1779,-0.2368 0.148,-0.4447c-0.0129,-0.0902 -0.0241,-0.1683 -0.012,-0.2043c0.0751,-0.2255 1.519,-1.4295 2.1858,-1.9854l0.1182,-0.0986c0.1857,-0.1559 0.3794,0.1541 0.513,0.3681l0.0001,0c0.0232,0.0372 0.0446,0.0715 0.0639,0.0999c0.212,0.315 0.307,0.65 0.193,1.019c-0.0223,0.0713 -0.0724,0.153 -0.1239,0.2369c-0.1217,0.1983 -0.2511,0.4091 -0.0381,0.5251c0.1708,-0.1998 0.4734,-0.5528 0.7774,-0.9074l0.0066,-0.0077l0.0032,-0.0037l0.0047,-0.0055c0.4064,-0.474 0.8114,-0.9466 0.9041,-1.0557c0.1209,-0.1401 -0.136,-0.0861 -0.254,-0.0613l-0.0001,0l0,0c-0.0421,0.0088 -0.0665,0.014 -0.0499,0.0053c-0.24,0.124 -0.466,0.153 -0.69,-0.018c-0.063,-0.047 -0.707,-0.702 -0.643,-0.757c0.0655,-0.055 0.1344,-0.1185 0.2063,-0.1846c0.2352,-0.2164 0.5011,-0.4612 0.7777,-0.5294c0.56,-0.138 1.027,0.984 1.11,1.382c0.078,0.375 0.067,0.77 -0.05,1.136c-0.0201,0.0631 -0.0501,0.1229 -0.0785,0.1797c-0.0845,0.1692 -0.1552,0.3105 0.0905,0.4243l1.383,-1.896c-0.0904,0.0046 -0.18,-0.0173 -0.258,-0.063c-0.5837,-0.3899 -1.8507,-2.029 -2.5465,-2.9294zm-8.6575,-5.1986c0.5551,-0.4724 1.2492,-0.7508 1.977,-0.793c1.158,-0.066 2.332,0.464 3.09,1.474c1.112,1.484 0.93,3.561 -0.5,4.766c-1.685,1.201 -3.767,1.008 -5.059,-0.694c-1.124,-1.478 -0.938,-3.55 0.492,-4.753zm3.167,0.593c0.949,-0.108 1.503,0.799 1.099,1.768c-0.42,0.98 -1.43,1.989 -2.424,2.38c-1.18,0.465 -2.011,-0.537 -1.531,-1.657c0.422,-0.984 1.43,-1.983 2.426,-2.38c0.15,-0.059 0.294,-0.095 0.43,-0.11l0,-0.001zm-2.4967,-4.5391c-0.0928,-0.0388 -0.1888,-0.0789 -0.2863,-0.0909l0,-0.001c-0.6958,-0.0832 -1.4788,0.0622 -2.2176,0.1994l0,0l0,0c-0.2828,0.0525 -0.559,0.1038 -0.8214,0.1406c-0.647,0.091 -2.172,1.576 -2.27,1.856c-0.0105,0.0388 0.0106,0.1265 0.035,0.2274c0.0547,0.2266 0.1255,0.5201 -0.109,0.4786c-0.0792,-0.0148 -0.2691,-0.2729 -0.3957,-0.4449l0,-0.0001l-0.0001,-0.0001c-0.0444,-0.0603 -0.081,-0.11 -0.1022,-0.1349l-1.617,-1.92c0.1432,-0.2029 0.2641,-0.1339 0.4037,-0.0542c0.1108,0.0632 0.2334,0.1332 0.3883,0.0792c0.2662,-0.0934 1.1782,-0.8707 1.6097,-1.2385l0.0005,-0.0004l0.0021,-0.0019c0.0569,-0.0484 0.1053,-0.0897 0.1427,-0.1212c0.5538,-0.4658 1.0406,-2.173 1.1999,-2.7313c0.0253,-0.0889 0.0424,-0.1487 0.0501,-0.1697c0.061,-0.17 0.082,-1.145 0.058,-1.125c0.2105,-0.1737 0.355,0.0395 0.5013,0.2555c0.0441,0.0651 0.0884,0.1304 0.1347,0.1855l1.78,2.112c-0.1322,0.1899 -0.2543,0.1343 -0.389,0.073c-0.1293,-0.0588 -0.2702,-0.123 -0.443,0.019c-0.1586,0.1309 -0.5399,1.2291 -0.7129,1.7273l-0.0391,0.1127c0.0382,-0.0068 0.0866,-0.015 0.1429,-0.0246l0,0c0.5325,-0.0908 1.7762,-0.3029 1.9191,-0.5534c0.0674,-0.1184 0.028,-0.2196 -0.0074,-0.3104c-0.0464,-0.1194 -0.0859,-0.2208 0.1334,-0.3196l1.447,1.712c-0.1524,0.2248 -0.3375,0.1475 -0.5377,0.0639zm23.9527,6.6781c0.124,0.421 0.194,0.865 0.14,1.305c-0.07,0.566 -0.636,1.898 -1.411,1.519c-0.5344,-0.2623 -1.0219,-0.7105 -1.4884,-1.1394c-0.197,-0.1811 -0.3902,-0.3588 -0.5816,-0.5176c0.5199,-0.608 0.9779,-1.135 1.8529,-0.84c0.2401,0.08 0.4461,-0.024 0.194,-0.17c-0.0499,-0.0291 -0.1538,-0.0931 -0.2901,-0.1771c-0.5811,-0.3582 -1.7499,-1.0786 -1.8268,-0.9919c-0.0796,0.0918 -0.016,0.2167 0.0583,0.3625c0.0892,0.175 0.1937,0.3801 0.0847,0.5945c-0.1148,0.2249 -0.2898,0.4258 -0.4601,0.6213c-0.0492,0.0565 -0.0981,0.1126 -0.1449,0.1687c-0.0683,-0.0576 -0.1433,-0.1157 -0.2197,-0.175l-0.0002,-0.0001l-0.0002,-0.0002c-0.4468,-0.3463 -0.9455,-0.733 -0.465,-1.2887c0.3521,-0.428 0.8111,-0.76 1.361,-0.87c0.1295,-0.0264 0.3158,-0.003 0.5075,0.021c0.3533,0.0443 0.7252,0.091 0.7946,-0.167c-0.423,-0.204 -0.846,-0.4069 -1.269,-0.6098c-0.282,-0.1353 -0.564,-0.2706 -0.846,-0.4062c0.0923,0.4176 -1.3654,2.0589 -2.206,3.0055c-0.2061,0.232 -0.3751,0.4222 -0.475,0.5425c-0.0194,0.023 -0.0579,0.0611 -0.1043,0.107c-0.1307,0.1291 -0.3238,0.32 -0.3267,0.41c-0.0055,0.2518 0.3294,0.0984 0.4105,0.0612l0.0001,0c0.0084,-0.0038 0.0141,-0.0064 0.0164,-0.0072c0.315,-0.116 4.424,3.317 4.5259,3.552c0.0308,0.086 0.0003,0.1741 -0.0273,0.2538c-0.0308,0.0889 -0.058,0.1674 0.0074,0.2212c-0.0004,-0.0003 -0.0002,-0.0002 0.0004,0.0004l0.0025,0.0022c0.0214,0.0197 0.1468,0.1353 0.1621,0.1174c0.0424,-0.0509 0.153,-0.1938 0.3105,-0.3971l0,0l0,-0.0001c0.7821,-1.0096 2.7181,-3.509 3.1785,-3.6388c-0.517,-0.7876 -1.0294,-1.5783 -1.5371,-2.372c-0.2866,0.1258 -0.1514,0.4084 -0.0296,0.6629c0.0409,0.0856 0.0803,0.1679 0.1017,0.2401zm-7.7158,5.1919c0.7212,-0.4461 2.5618,-1.5847 3.7158,-0.8399c1.132,0.942 0.885,2.48 0.132,3.58c-0.361,0.525 -0.817,0.964 -1.294,1.383l-0.0313,0.0262c-0.3502,0.2934 -0.6087,0.5099 -0.6747,0.9888l-2.26,-1.647c0.1126,-0.2955 0.3381,-0.1689 0.5606,-0.044c0.0818,0.0459 0.1631,0.0916 0.2384,0.116c0.391,0.129 0.816,0.165 1.216,0.059c0.684,-0.182 1.377,-0.823 1.56,-1.519c0.228,-0.865 -0.621,-1.127 -1.267,-0.824c-0.3111,0.1459 -0.6078,0.3414 -0.9005,0.5341c-0.1166,0.0769 -0.2326,0.1532 -0.3485,0.2259c-0.653,0.407 -1.421,0.715 -2.158,0.331c-0.648,-0.336 -1.089,-0.99 -1.089,-1.726c0,-0.797 0.453,-1.495 0.987,-2.05c0.1241,-0.1286 0.2742,-0.2551 0.4287,-0.3853c0.4029,-0.3395 0.8361,-0.7046 0.9193,-1.1997c0.555,0.376 1.11,0.751 1.667,1.126c0.092,0.0629 0.0758,0.084 0.0253,0.1496l-0.0001,0.0001c-0.0153,0.0199 -0.0337,0.0438 -0.0532,0.0743c-0.0473,0.0738 -0.3703,0.0375 -0.6345,0.0079l0,0c-0.1331,-0.015 -0.2512,-0.0283 -0.3115,-0.0249c-0.596,0.036 -1.196,0.297 -1.5,0.837c-0.35,0.622 0.137,1.294 0.812,0.975c0.0493,-0.0236 0.1389,-0.079 0.2602,-0.1541zm21.3328,-28.9049c-0.0351,0.016 -0.0655,0.0408 -0.088,0.072l-0.79,0.95l-0.814,0.982c-0.0281,0.0341 -0.0565,0.065 -0.0829,0.0937l0,0.0001c-0.1315,0.1432 -0.212,0.2308 0.0579,0.3732c0.543,-0.272 3.518,4.768 3.252,5.492c-0.47,0.244 -4.49,-3.283 -4.598,-3.516c-0.0094,-0.0269 0.0009,-0.0919 0.0132,-0.17c0.0312,-0.1971 0.0757,-0.4781 -0.1492,-0.443c-0.1104,0.017 -0.3229,0.3288 -0.4638,0.5356l-0.0001,0.0001l0,0l-0.0002,0.0003c-0.0492,0.0722 -0.0896,0.1315 -0.1139,0.161l-0.577,0.695c0.1308,0.1908 0.2264,0.1457 0.3453,0.0895c0.0773,-0.0365 0.1645,-0.0777 0.2777,-0.0615c0.2281,0.0458 1.0438,0.7329 1.3774,1.0139l0,0l0.0001,0.0001l0,0l0.0785,0.066c-0.1566,0.0057 -0.4022,0.0171 -0.6662,0.0294c-0.5286,0.0246 -1.1308,0.0526 -1.2388,0.0446c-0.3359,0.0418 -0.3771,-0.1058 -0.4236,-0.2723c-0.0346,-0.124 -0.0721,-0.2584 -0.2364,-0.3327l-1.478,1.795l-0.86,1.043c-0.0042,0.005 -0.0078,0.009 -0.0108,0.0125c-0.0076,0.0087 -0.0115,0.013 -0.011,0.0168c0.0005,0.0038 0.0052,0.0071 0.0145,0.0135c0.0087,0.006 0.0213,0.0148 0.0383,0.0292c0.03,0.0247 0.053,0.0447 0.0711,0.0604c0.0397,0.0345 0.0561,0.0487 0.0724,0.0487c0.0115,-0.0001 0.023,-0.0071 0.0426,-0.0192c0.0307,-0.019 0.0815,-0.0503 0.1839,-0.0859c0.328,-0.115 4.256,3.2 4.398,3.369c0.1117,0.1332 0.1007,0.2766 0.0906,0.4083c-0.012,0.1571 -0.0228,0.2977 0.1774,0.3847l1.168,-1.418c0.0125,-0.0153 0.0239,-0.0271 0.0332,-0.0368c0.0344,-0.0358 0.0411,-0.0428 -0.0202,-0.0932c-0.153,-0.1259 -0.2312,-0.0707 -0.3281,-0.0024c-0.0785,0.0554 -0.1692,0.1194 -0.3219,0.1024c-0.2994,-0.0493 -2.2176,-1.6494 -3.3596,-2.602l-0.0012,-0.001l-0.0042,-0.0036l-0.0015,-0.0012l-0.0061,-0.0051c-0.1728,-0.1441 -0.3274,-0.2731 -0.4554,-0.3791l5.322,-0.197c0.195,-0.007 0.74,0.581 0.695,0.79c-0.016,0.0747 -0.0503,0.1375 -0.0808,0.1931c-0.069,0.126 -0.1177,0.215 0.1148,0.3219c0.1233,-0.1484 0.2495,-0.2964 0.3759,-0.4447l0.0001,-0.0001l0.0001,0l0,-0.0001l0.0001,-0.0001l0.0001,-0.0001c0.1921,-0.2254 0.3847,-0.4514 0.5687,-0.6799l0.148,-0.184c0.0576,-0.0461 0.1038,-0.105 0.135,-0.172l0.11,-0.137c0.0265,-0.0303 0.0587,-0.0668 0.0953,-0.1082l0.0024,-0.0027l0.0001,-0.0002c0.3438,-0.3893 1.0606,-1.2011 0.9642,-1.2849c-0.14,-0.1213 -0.2464,-0.0637 -0.3606,-0.0019c-0.1305,0.0706 -0.2711,0.1467 -0.4834,-0.0331c-0.2055,-0.1473 -0.6929,-0.9856 -0.8864,-1.3185l-0.0486,-0.0835c-0.1535,-0.2605 0.2805,-0.5203 0.5399,-0.6755c0.0314,-0.0187 0.0602,-0.036 0.0851,-0.0515c0.504,-0.313 2.107,-0.767 2.26,0.227c0.0107,0.072 -0.0207,0.1483 -0.0502,0.2198c-0.0388,0.0943 -0.0742,0.1803 -0.0048,0.2372c0.0053,0.0045 0.0133,0.013 0.0232,0.0233c0.0423,0.0441 0.1179,0.123 0.1528,0.0817l2.142,-2.576c-0.02,-0.0169 -0.041,-0.0381 -0.063,-0.0599c-0.046,-0.0466 -0.096,-0.0964 -0.147,-0.1161c-0.474,0.473 -5.466,-1.52 -5.83,-1.795c-0.0763,-0.0303 -0.1231,-0.1749 -0.1688,-0.3164c-0.0537,-0.1662 -0.106,-0.3281 -0.2032,-0.2946zm2.062,3.513c-0.761,-0.322 -1.523,-0.642 -2.287,-0.96l1.016,1.748c0.1886,-0.1867 0.3968,-0.3527 0.621,-0.495l0.002,0c0.201,-0.127 0.418,-0.229 0.648,-0.293zm-8.875,6.793c-1.107,-0.076 -2.23,0.41 -3.023,1.317c-1.235,1.5 -1.112,3.678 0.393,4.945c1.518,1.25 3.68,0.932 4.916,-0.55c1.232,-1.496 1.147,-3.68 -0.385,-4.934c-0.5346,-0.4546 -1.2001,-0.7272 -1.9,-0.778l-0.001,0zm0.293,2.262c-0.432,-0.289 -1.12,-0.665 -1.742,-0.703c-0.373,-0.023 -0.723,0.077 -0.98,0.391c-0.815,0.996 0.462,2.126 1.207,2.664c0.744,0.537 2.124,1.314 2.924,0.474c0.0064,-0.0055 0.0124,-0.0115 0.018,-0.018c0.133,-0.167 0.098,-0.128 0.05,-0.07c0.737,-1.051 -0.697,-2.217 -1.477,-2.738zm-4.869,3.577c-1.214,-0.067 -2.403,0.496 -3.299,1.576c-0.5237,0.6289 -1.0461,1.2591 -1.5682,1.8891l-0.3538,0.4269c0.1234,0.1798 0.2583,0.142 0.4087,0.0999c0.1274,-0.0357 0.266,-0.0745 0.4183,0.0131c0.283,0.163 4.053,3.312 4.115,3.485c0.0464,0.1302 0.0205,0.2146 -0.0016,0.2863c-0.0282,0.0918 -0.0499,0.1626 0.0956,0.2817c0.111,0.093 2.944,-3.405 3.203,-4.02c0.448,-1.139 0.091,-2.387 -0.82,-3.175c0.073,0.06 0.177,0.145 -0.042,-0.037c-0.69,-0.518 -1.427,-0.787 -2.156,-0.827l0,0.001zm-0.787,1.617c-0.0821,-0.021 -0.171,-0.034 -0.266,-0.037l0,-0.001c-0.661,-0.025 -1.582,0.358 -2.057,0.879c-0.159,0.175 3.822,3.399 4.02,3.209c0.1826,-0.1754 0.2564,-0.2389 0.297,-0.2738c0.049,-0.0421 0.0497,-0.0427 0.135,-0.1482c1.2549,-1.513 -0.707,-3.265 -2.129,-3.628z" clip-rule="evenodd" fill-rule="evenodd"/>
 </g>
</svg>